<?xml version="1.0" encoding="UTF-8" standalone="no"?>
<svg
   id="Layer_1"
   height="512"
   viewBox="0 0 24 24"
   width="512"
   data-name="Layer 1"
   version="1.1"
   sodipodi:docname="bulb_colored.svg"
   inkscape:version="1.2.2 (732a01da63, 2022-12-09)"
   inkscape:export-filename="bulb.png"
   inkscape:export-xdpi="96"
   inkscape:export-ydpi="96"
   xmlns:inkscape="http://www.inkscape.org/namespaces/inkscape"
   xmlns:sodipodi="http://sodipodi.sourceforge.net/DTD/sodipodi-0.dtd"
   xmlns="http://www.w3.org/2000/svg"
   xmlns:svg="http://www.w3.org/2000/svg">
  <defs
     id="defs12" />
  <sodipodi:namedview
     id="namedview10"
     pagecolor="#ffffff"
     bordercolor="#666666"
     borderopacity="1.0"
     inkscape:showpageshadow="2"
     inkscape:pageopacity="0.0"
     inkscape:pagecheckerboard="0"
     inkscape:deskcolor="#d1d1d1"
     showgrid="false"
     inkscape:zoom="3.5273438"
     inkscape:cx="233.46179"
     inkscape:cy="289.59468"
     inkscape:window-width="1920"
     inkscape:window-height="1001"
     inkscape:window-x="-9"
     inkscape:window-y="-9"
     inkscape:window-maximized="1"
     inkscape:current-layer="Layer_1" />
  <rect
     style="fill:#ffffff;stroke-width:0.133524"
     id="rect447"
     width="8.7645912"
     height="13.060175"
     x="7.5747509"
     y="6.7441864"
     ry="0" />
  <path
     d="M 5.868,15.583 C 3.7276138,13.60591 2.6853033,10.709607 3.075,7.822 3.89552,1.5871158 10.694442,-1.905367 16.240516,1.0589847 21.78659,4.0233363 22.66016,11.616732 17.932,15.763 17.227482,16.368699 16.680493,17.136336 16.338,18 H 13 V 10.816 C 14.194351,10.393745 14.994749,9.2667854 15,8 15,6.6666672 13,6.6666672 13,8 13,9.3333328 11,9.3333328 11,8 11,6.6666672 9,6.6666672 9,8 c 0.00525,1.2667854 0.8056491,2.393745 2,2.816 V 18 H 7.563 C 7.180697,17.080544 6.6022219,16.255662 5.868,15.583 Z"
     id="path7"
     style="fill:#ffcc00"
     sodipodi:nodetypes="ccscccccssccccc" />
  <path
     d="m 7.5813952,19.808036 v 0.326478 c 0.00241,2.145297 1.8108678,3.883824 4.0424478,3.886146 h 0.67922 c 2.231583,-0.0023 4.040034,-1.740849 4.04245,-3.886146 v -0.326478 z"
     style="fill:#ac9d93;stroke-width:1.07413"
     id="path306" />
</svg>
