<?xml version="1.0" encoding="UTF-8" standalone="no"?>
<svg
   id="Layer_1"
   height="512"
   viewBox="0 0 24 24"
   width="512"
   data-name="Layer 1"
   version="1.1"
   sodipodi:docname="bulb.svg"
   inkscape:version="1.2.2 (732a01da63, 2022-12-09)"
   xmlns:inkscape="http://www.inkscape.org/namespaces/inkscape"
   xmlns:sodipodi="http://sodipodi.sourceforge.net/DTD/sodipodi-0.dtd"
   xmlns="http://www.w3.org/2000/svg"
   xmlns:svg="http://www.w3.org/2000/svg">
  <defs
     id="defs12" />
  <sodipodi:namedview
     id="namedview10"
     pagecolor="#ffffff"
     bordercolor="#666666"
     borderopacity="1.0"
     inkscape:showpageshadow="2"
     inkscape:pageopacity="0.0"
     inkscape:pagecheckerboard="0"
     inkscape:deskcolor="#d1d1d1"
     showgrid="false"
     inkscape:zoom="1.7636719"
     inkscape:cx="255.7165"
     inkscape:cy="256.2835"
     inkscape:window-width="1858"
     inkscape:window-height="1057"
     inkscape:window-x="54"
     inkscape:window-y="-8"
     inkscape:window-maximized="1"
     inkscape:current-layer="Layer_1" />
  <path
     d="m5.868 15.583a8.938 8.938 0 0 1 -2.793-7.761 9 9 0 1 1 14.857 7.941 5.741 5.741 0 0 0 -1.594 2.237h-3.338v-7.184a3 3 0 0 0 2-2.816 1 1 0 0 0 -2 0 1 1 0 0 1 -2 0 1 1 0 0 0 -2 0 3 3 0 0 0 2 2.816v7.184h-3.437a6.839 6.839 0 0 0 -1.695-2.417zm2.132 4.417v.31a3.694 3.694 0 0 0 3.69 3.69h.62a3.694 3.694 0 0 0 3.69-3.69v-.31z"
     id="path7"
     style="fill:#ffffff" />
</svg>
