<?xml version="1.0" encoding="UTF-8" standalone="no"?>
<!-- Generator: Adobe Illustrator 25.0.0, SVG Export Plug-In . SVG Version: 6.00 Build 0)  -->

<svg
   version="1.1"
   id="Capa_1"
   x="0px"
   y="0px"
   viewBox="0 0 512 512"
   style="enable-background:new 0 0 512 512;"
   xml:space="preserve"
   width="512"
   height="512"
   sodipodi:docname="home(1).svg"
   inkscape:export-filename="home(1).png"
   inkscape:export-xdpi="96"
   inkscape:export-ydpi="96"
   inkscape:version="1.2.2 (732a01da63, 2022-12-09)"
   xmlns:inkscape="http://www.inkscape.org/namespaces/inkscape"
   xmlns:sodipodi="http://sodipodi.sourceforge.net/DTD/sodipodi-0.dtd"
   xmlns="http://www.w3.org/2000/svg"
   xmlns:svg="http://www.w3.org/2000/svg"><defs
   id="defs209" /><sodipodi:namedview
   id="namedview207"
   pagecolor="#ffffff"
   bordercolor="#000000"
   borderopacity="0.25"
   inkscape:showpageshadow="2"
   inkscape:pageopacity="0.0"
   inkscape:pagecheckerboard="0"
   inkscape:deskcolor="#d1d1d1"
   showgrid="false"
   inkscape:zoom="1.5898438"
   inkscape:cx="106.61425"
   inkscape:cy="256.3145"
   inkscape:window-width="1920"
   inkscape:window-height="1001"
   inkscape:window-x="-9"
   inkscape:window-y="-9"
   inkscape:window-maximized="1"
   inkscape:current-layer="Capa_1" />
<g
   id="g204"
   style="fill:#ffffff">
	<path
   d="M256,319.841c-35.346,0-64,28.654-64,64v128h128v-128C320,348.495,291.346,319.841,256,319.841z"
   id="path196"
   style="fill:#ffffff" />
	<g
   id="g202"
   style="fill:#ffffff">
		<path
   d="M362.667,383.841v128H448c35.346,0,64-28.654,64-64V253.26c0.005-11.083-4.302-21.733-12.011-29.696l-181.29-195.99    c-31.988-34.61-85.976-36.735-120.586-4.747c-1.644,1.52-3.228,3.103-4.747,4.747L12.395,223.5    C4.453,231.496-0.003,242.31,0,253.58v194.261c0,35.346,28.654,64,64,64h85.333v-128c0.399-58.172,47.366-105.676,104.073-107.044    C312.01,275.383,362.22,323.696,362.667,383.841z"
   id="path198"
   style="fill:#ffffff" />
		<path
   d="M256,319.841c-35.346,0-64,28.654-64,64v128h128v-128C320,348.495,291.346,319.841,256,319.841z"
   id="path200"
   style="fill:#ffffff" />
	</g>
</g>















</svg>
