<?xml version="1.0" encoding="UTF-8" standalone="no"?>
<svg
   viewBox="0 0 24 24"
   width="512"
   height="512"
   version="1.1"
   id="svg42"
   sodipodi:docname="trash.svg"
   inkscape:version="1.2.2 (732a01da63, 2022-12-09)"
   xmlns:inkscape="http://www.inkscape.org/namespaces/inkscape"
   xmlns:sodipodi="http://sodipodi.sourceforge.net/DTD/sodipodi-0.dtd"
   xmlns="http://www.w3.org/2000/svg"
   xmlns:svg="http://www.w3.org/2000/svg">
  <defs
     id="defs46" />
  <sodipodi:namedview
     id="namedview44"
     pagecolor="#ffffff"
     bordercolor="#000000"
     borderopacity="0.25"
     inkscape:showpageshadow="2"
     inkscape:pageopacity="0.0"
     inkscape:pagecheckerboard="0"
     inkscape:deskcolor="#d1d1d1"
     showgrid="false"
     inkscape:zoom="1.5898438"
     inkscape:cx="256.3145"
     inkscape:cy="256.3145"
     inkscape:window-width="1920"
     inkscape:window-height="1001"
     inkscape:window-x="-9"
     inkscape:window-y="-9"
     inkscape:window-maximized="1"
     inkscape:current-layer="svg42" />
  <g
     id="_01_align_center"
     data-name="01 align center"
     style="fill:#ad0470;fill-opacity:1">
    <path
       d="M22,4H17V2a2,2,0,0,0-2-2H9A2,2,0,0,0,7,2V4H2V6H4V21a3,3,0,0,0,3,3H17a3,3,0,0,0,3-3V6h2ZM9,2h6V4H9Zm9,19a1,1,0,0,1-1,1H7a1,1,0,0,1-1-1V6H18Z"
       id="path35"
       style="fill:#ad0470;fill-opacity:1" />
    <rect
       x="9"
       y="10"
       width="2"
       height="8"
       id="rect37"
       style="fill:#ad0470;fill-opacity:1" />
    <rect
       x="13"
       y="10"
       width="2"
       height="8"
       id="rect39"
       style="fill:#ad0470;fill-opacity:1" />
  </g>
</svg>
